<?xml version="1.0" encoding="UTF-8"?>
<svg xmlns="http://www.w3.org/2000/svg" xmlns:xlink="http://www.w3.org/1999/xlink" width="30px" height="30px" viewBox="0 0 30 30" version="1.1">
<g id="surface1">
<path style=" stroke:none;fill-rule:nonzero;fill:rgb(95.294118%,95.294118%,95.294118%);fill-opacity:1;" d="M 0 0 C 9.898438 0 19.800781 0 30 0 C 30 9.898438 30 19.800781 30 30 C 20.101562 30 10.199219 30 0 30 C 0 20.101562 0 10.199219 0 0 Z M 0 0 "/>
<path style=" stroke:none;fill-rule:nonzero;fill:rgb(99.215686%,86.27451%,34.509804%);fill-opacity:1;" d="M 9.082031 20.925781 C 9.136719 20.925781 9.1875 20.925781 9.246094 20.925781 C 9.300781 20.925781 9.359375 20.925781 9.417969 20.925781 C 9.609375 20.925781 9.800781 20.925781 9.996094 20.925781 C 10.132812 20.925781 10.269531 20.925781 10.40625 20.925781 C 10.78125 20.925781 11.15625 20.925781 11.53125 20.925781 C 11.921875 20.925781 12.3125 20.925781 12.703125 20.925781 C 13.363281 20.925781 14.019531 20.925781 14.675781 20.925781 C 15.351562 20.929688 16.027344 20.929688 16.703125 20.929688 C 16.765625 20.929688 16.765625 20.929688 16.832031 20.929688 C 16.894531 20.929688 16.894531 20.929688 16.957031 20.929688 C 17.6875 20.929688 18.417969 20.929688 19.148438 20.929688 C 19.460938 20.929688 19.769531 20.929688 20.082031 20.929688 C 20.449219 20.929688 20.816406 20.929688 21.179688 20.929688 C 21.316406 20.929688 21.449219 20.929688 21.585938 20.929688 C 21.769531 20.929688 21.953125 20.929688 22.136719 20.933594 C 22.191406 20.933594 22.242188 20.933594 22.300781 20.933594 C 22.667969 20.933594 22.667969 20.933594 22.800781 21 C 22.800781 21.652344 22.800781 22.308594 22.800781 22.980469 C 18.105469 22.980469 13.414062 22.980469 8.578125 22.980469 C 8.578125 20.925781 8.578125 20.925781 9.082031 20.925781 Z M 9.082031 20.925781 "/>
<path style=" stroke:none;fill-rule:nonzero;fill:rgb(90.196078%,78.823529%,33.72549%);fill-opacity:1;" d="M 8.578125 12 C 9.570312 12 10.558594 12 11.578125 12 C 11.578125 12.988281 11.578125 13.980469 11.578125 15 C 10.984375 15 10.390625 15 9.78125 15 C 9.78125 15.988281 9.78125 16.980469 9.78125 18 C 8.789062 18 7.800781 18 6.78125 18 C 6.78125 17.011719 6.78125 16.019531 6.78125 15 C 7.375 15 7.96875 15 8.578125 15 C 8.578125 14.011719 8.578125 13.019531 8.578125 12 Z M 8.578125 12 "/>
<path style=" stroke:none;fill-rule:nonzero;fill:rgb(19.215686%,10.980392%,9.411765%);fill-opacity:1;" d="M 18.359375 7.800781 C 18.359375 7.855469 18.359375 7.855469 18.359375 7.90625 C 18.367188 8.777344 18.371094 9.644531 18.378906 10.511719 C 18.378906 10.933594 18.382812 11.351562 18.386719 11.773438 C 18.386719 12.179688 18.390625 12.582031 18.394531 12.988281 C 18.394531 13.140625 18.394531 13.296875 18.394531 13.453125 C 18.398438 13.667969 18.398438 13.882812 18.402344 14.101562 C 18.402344 14.164062 18.402344 14.230469 18.402344 14.296875 C 18.402344 14.355469 18.402344 14.414062 18.402344 14.472656 C 18.402344 14.523438 18.402344 14.578125 18.40625 14.628906 C 18.414062 14.777344 18.414062 14.777344 18.539062 14.941406 C 18.769531 14.964844 18.917969 14.957031 19.128906 14.863281 C 19.269531 14.753906 19.3125 14.683594 19.378906 14.519531 C 19.40625 14.277344 19.378906 14.058594 19.234375 13.859375 C 19.160156 13.78125 19.085938 13.703125 19.011719 13.625 C 18.660156 13.230469 18.554688 12.820312 18.558594 12.300781 C 18.589844 11.789062 18.8125 11.367188 19.152344 10.984375 C 19.601562 10.582031 20.078125 10.453125 20.671875 10.480469 C 21.695312 10.582031 22.492188 11.050781 23.144531 11.839844 C 23.773438 12.695312 23.96875 13.625 23.839844 14.664062 C 23.679688 15.601562 23.167969 16.40625 22.421875 16.984375 C 22.179688 17.15625 21.933594 17.285156 21.660156 17.398438 C 21.617188 17.417969 21.570312 17.4375 21.527344 17.457031 C 20.96875 17.664062 20.210938 17.6875 19.644531 17.488281 C 19.378906 17.363281 19.175781 17.171875 18.972656 16.957031 C 18.84375 16.847656 18.84375 16.847656 18.65625 16.828125 C 18.472656 16.84375 18.472656 16.84375 18.367188 16.976562 C 18.324219 17.050781 18.324219 17.050781 18.28125 17.125 C 18.25 17.175781 18.222656 17.226562 18.191406 17.277344 C 18.167969 17.316406 18.144531 17.359375 18.121094 17.398438 C 18.058594 17.460938 18.058594 17.460938 17.871094 17.484375 C 17.582031 17.453125 17.425781 17.363281 17.21875 17.160156 C 17.039062 16.886719 17.007812 16.640625 16.980469 16.320312 C 16.960938 16.355469 16.941406 16.386719 16.921875 16.421875 C 16.570312 16.996094 16.082031 17.382812 15.425781 17.554688 C 14.609375 17.714844 13.8125 17.625 13.105469 17.183594 C 12.6875 16.882812 12.375 16.523438 12.238281 16.019531 C 12.1875 15.367188 12.230469 14.910156 12.664062 14.394531 C 12.933594 14.109375 13.207031 13.910156 13.558594 13.738281 C 13.621094 13.710938 13.621094 13.710938 13.683594 13.679688 C 14.324219 13.410156 15.105469 13.511719 15.734375 13.746094 C 15.902344 13.800781 16.027344 13.816406 16.199219 13.800781 C 16.277344 13.738281 16.277344 13.738281 16.265625 13.589844 C 16.277344 13.445312 16.277344 13.445312 16.199219 13.378906 C 16.117188 13.386719 16.03125 13.394531 15.949219 13.40625 C 15.171875 13.488281 14.449219 13.496094 13.777344 13.039062 C 13.484375 12.792969 13.246094 12.519531 13.164062 12.136719 C 13.140625 11.765625 13.226562 11.515625 13.449219 11.21875 C 13.851562 10.777344 14.351562 10.519531 14.949219 10.476562 C 15.429688 10.457031 15.847656 10.476562 16.261719 10.738281 C 16.304688 10.765625 16.351562 10.792969 16.398438 10.820312 C 16.914062 11.136719 17.246094 11.550781 17.460938 12.121094 C 17.511719 12.414062 17.527344 12.703125 17.53125 13.003906 C 17.53125 13.046875 17.53125 13.09375 17.53125 13.136719 C 17.53125 13.234375 17.53125 13.328125 17.535156 13.421875 C 17.535156 13.574219 17.535156 13.726562 17.539062 13.875 C 17.542969 14.304688 17.546875 14.734375 17.546875 15.160156 C 17.550781 15.425781 17.554688 15.6875 17.554688 15.949219 C 17.558594 16.050781 17.558594 16.148438 17.558594 16.25 C 17.558594 16.390625 17.558594 16.527344 17.5625 16.667969 C 17.5625 16.707031 17.5625 16.75 17.5625 16.792969 C 17.566406 17.007812 17.578125 17.09375 17.699219 17.28125 C 17.824219 17.324219 17.824219 17.324219 17.941406 17.339844 C 17.9375 17.289062 17.933594 17.242188 17.929688 17.191406 C 17.929688 17.125 17.925781 17.0625 17.925781 16.996094 C 17.921875 16.929688 17.917969 16.867188 17.917969 16.800781 C 17.941406 16.621094 17.941406 16.621094 18.046875 16.480469 C 18.179688 16.378906 18.179688 16.378906 18.386719 16.347656 C 18.65625 16.390625 18.730469 16.472656 18.898438 16.679688 C 18.933594 16.726562 18.96875 16.777344 19 16.828125 C 19.328125 17.191406 19.8125 17.433594 20.300781 17.472656 C 21.042969 17.492188 21.652344 17.269531 22.214844 16.78125 C 22.996094 16.035156 23.320312 15.046875 23.363281 13.976562 C 23.320312 12.984375 22.96875 12.050781 22.261719 11.339844 C 21.589844 10.78125 20.964844 10.625 20.101562 10.679688 C 19.6875 10.757812 19.304688 11.011719 19.046875 11.339844 C 18.738281 11.816406 18.742188 12.285156 18.78125 12.839844 C 18.871094 13.246094 19.066406 13.527344 19.351562 13.824219 C 19.527344 14.015625 19.519531 14.191406 19.515625 14.441406 C 19.492188 14.660156 19.40625 14.777344 19.261719 14.941406 C 19 15.113281 18.792969 15.160156 18.480469 15.121094 C 18.214844 14.980469 18.0625 14.851562 17.941406 14.578125 C 17.914062 14.375 17.917969 14.175781 17.917969 13.96875 C 17.917969 13.878906 17.917969 13.878906 17.917969 13.785156 C 17.917969 13.652344 17.917969 13.519531 17.917969 13.386719 C 17.917969 13.175781 17.917969 12.96875 17.917969 12.757812 C 17.914062 12.160156 17.914062 11.566406 17.914062 10.96875 C 17.914062 10.605469 17.914062 10.238281 17.910156 9.875 C 17.910156 9.667969 17.910156 9.460938 17.910156 9.253906 C 17.910156 9.125 17.910156 9 17.910156 8.875 C 17.910156 8.816406 17.910156 8.757812 17.910156 8.699219 C 17.917969 8.402344 17.917969 8.402344 17.769531 8.15625 C 17.632812 8.09375 17.632812 8.09375 17.460938 8.039062 C 17.460938 8 17.460938 7.960938 17.460938 7.921875 C 17.554688 7.898438 17.648438 7.878906 17.742188 7.859375 C 17.792969 7.847656 17.84375 7.835938 17.898438 7.828125 C 18.054688 7.800781 18.203125 7.796875 18.359375 7.800781 Z M 13.472656 11.320312 C 13.269531 11.621094 13.273438 11.949219 13.320312 12.300781 C 13.496094 12.75 13.847656 13.007812 14.28125 13.199219 C 14.679688 13.355469 15.074219 13.328125 15.5 13.320312 C 15.640625 13.316406 15.78125 13.3125 15.921875 13.3125 C 15.984375 13.3125 16.046875 13.308594 16.109375 13.308594 C 16.261719 13.320312 16.261719 13.320312 16.378906 13.441406 C 16.402344 13.609375 16.398438 13.703125 16.316406 13.851562 C 16.132812 13.957031 15.972656 13.910156 15.78125 13.859375 C 15.738281 13.84375 15.699219 13.832031 15.65625 13.816406 C 15.046875 13.597656 14.355469 13.554688 13.761719 13.832031 C 13.269531 14.125 12.886719 14.496094 12.71875 15.058594 C 12.644531 15.71875 12.707031 16.304688 13.117188 16.84375 C 13.445312 17.195312 13.914062 17.484375 14.398438 17.519531 C 15.230469 17.519531 15.894531 17.363281 16.515625 16.796875 C 17.027344 16.269531 17.066406 15.695312 17.066406 14.984375 C 17.066406 14.910156 17.066406 14.832031 17.066406 14.757812 C 17.066406 14.558594 17.066406 14.363281 17.066406 14.164062 C 17.066406 14.042969 17.066406 13.921875 17.066406 13.804688 C 17.070312 13.570312 17.070312 13.335938 17.070312 13.105469 C 17.070312 13.035156 17.070312 12.964844 17.070312 12.890625 C 17.066406 12.144531 16.847656 11.570312 16.324219 11.042969 C 15.886719 10.636719 15.511719 10.59375 14.925781 10.605469 C 14.316406 10.644531 13.882812 10.871094 13.472656 11.320312 Z M 13.472656 11.320312 "/>
<path style=" stroke:none;fill-rule:nonzero;fill:rgb(95.686275%,95.686275%,95.294118%);fill-opacity:1;" d="M 6.839844 15.058594 C 7.789062 15.058594 8.742188 15.058594 9.71875 15.058594 C 9.71875 16.011719 9.71875 16.960938 9.71875 17.941406 C 8.769531 17.941406 7.820312 17.941406 6.839844 17.941406 C 6.839844 16.988281 6.839844 16.039062 6.839844 15.058594 Z M 6.839844 15.058594 "/>
<path style=" stroke:none;fill-rule:nonzero;fill:rgb(20.392157%,12.156863%,10.588235%);fill-opacity:1;" d="M 15.71875 10.5 C 15.71875 10.519531 15.71875 10.539062 15.71875 10.558594 C 15.683594 10.5625 15.644531 10.566406 15.609375 10.570312 C 14.492188 10.660156 14.492188 10.660156 13.585938 11.257812 C 13.367188 11.53125 13.355469 11.789062 13.359375 12.128906 C 13.390625 12.40625 13.488281 12.582031 13.679688 12.78125 C 14.335938 13.277344 14.914062 13.273438 15.710938 13.25 C 15.777344 13.25 15.847656 13.246094 15.914062 13.246094 C 16.007812 13.242188 16.007812 13.242188 16.101562 13.242188 C 16.261719 13.261719 16.261719 13.261719 16.371094 13.339844 C 16.441406 13.441406 16.441406 13.441406 16.464844 13.585938 C 16.441406 13.738281 16.441406 13.738281 16.347656 13.882812 C 16.199219 13.980469 16.199219 13.980469 16.011719 13.976562 C 15.78125 13.921875 15.78125 13.921875 15.65625 13.875 C 15.050781 13.660156 14.359375 13.617188 13.765625 13.886719 C 13.285156 14.164062 12.964844 14.535156 12.78125 15.058594 C 12.707031 15.71875 12.78125 16.257812 13.148438 16.816406 C 13.558594 17.207031 14.023438 17.460938 14.59375 17.460938 C 15.410156 17.417969 16.054688 17.230469 16.617188 16.617188 C 16.757812 16.445312 16.859375 16.292969 16.921875 16.078125 C 16.960938 16.121094 17 16.160156 17.039062 16.199219 C 16.65625 16.90625 16.234375 17.222656 15.5 17.527344 C 14.773438 17.722656 13.914062 17.652344 13.261719 17.28125 C 12.773438 16.976562 12.390625 16.585938 12.238281 16.019531 C 12.1875 15.367188 12.230469 14.910156 12.664062 14.394531 C 12.933594 14.109375 13.207031 13.910156 13.558594 13.738281 C 13.601562 13.71875 13.640625 13.699219 13.683594 13.679688 C 14.324219 13.410156 15.105469 13.511719 15.734375 13.746094 C 15.902344 13.800781 16.027344 13.816406 16.199219 13.800781 C 16.277344 13.738281 16.277344 13.738281 16.265625 13.589844 C 16.277344 13.445312 16.277344 13.445312 16.199219 13.378906 C 16.117188 13.386719 16.03125 13.394531 15.949219 13.40625 C 15.171875 13.488281 14.449219 13.496094 13.777344 13.039062 C 13.484375 12.792969 13.246094 12.519531 13.164062 12.136719 C 13.140625 11.765625 13.226562 11.515625 13.449219 11.21875 C 14.085938 10.523438 14.832031 10.460938 15.71875 10.5 Z M 15.71875 10.5 "/>
<path style=" stroke:none;fill-rule:nonzero;fill:rgb(17.647059%,9.019608%,7.45098%);fill-opacity:1;" d="M 18.359375 7.800781 C 18.359375 7.835938 18.359375 7.871094 18.359375 7.90625 C 18.363281 8.773438 18.367188 9.640625 18.371094 10.507812 C 18.375 10.925781 18.375 11.34375 18.375 11.765625 C 18.378906 12.167969 18.378906 12.570312 18.382812 12.976562 C 18.382812 13.128906 18.382812 13.285156 18.382812 13.4375 C 18.382812 13.65625 18.386719 13.871094 18.386719 14.085938 C 18.386719 14.152344 18.386719 14.214844 18.386719 14.28125 C 18.390625 14.636719 18.390625 14.636719 18.542969 14.953125 C 18.582031 14.988281 18.621094 15.023438 18.660156 15.058594 C 18.527344 15.078125 18.527344 15.078125 18.359375 15.058594 C 17.957031 14.714844 17.957031 14.714844 17.925781 14.460938 C 17.925781 14.414062 17.925781 14.367188 17.925781 14.320312 C 17.925781 14.265625 17.925781 14.214844 17.925781 14.160156 C 17.925781 14.074219 17.925781 14.074219 17.925781 13.984375 C 17.925781 13.921875 17.925781 13.863281 17.925781 13.796875 C 17.921875 13.664062 17.921875 13.53125 17.921875 13.398438 C 17.921875 13.191406 17.921875 12.980469 17.921875 12.769531 C 17.917969 12.171875 17.917969 11.574219 17.917969 10.976562 C 17.917969 10.609375 17.914062 10.246094 17.914062 9.878906 C 17.914062 9.738281 17.914062 9.601562 17.914062 9.460938 C 17.914062 9.265625 17.914062 9.070312 17.910156 8.875 C 17.910156 8.789062 17.910156 8.789062 17.914062 8.699219 C 17.917969 8.402344 17.917969 8.402344 17.769531 8.15625 C 17.632812 8.09375 17.632812 8.09375 17.460938 8.039062 C 17.460938 8 17.460938 7.960938 17.460938 7.921875 C 17.554688 7.898438 17.648438 7.878906 17.742188 7.859375 C 17.792969 7.847656 17.84375 7.835938 17.898438 7.828125 C 18.054688 7.800781 18.203125 7.796875 18.359375 7.800781 Z M 18.359375 7.800781 "/>
<path style=" stroke:none;fill-rule:nonzero;fill:rgb(99.215686%,87.843137%,40.392157%);fill-opacity:1;" d="M 8.160156 15.359375 C 8.433594 15.394531 8.433594 15.394531 8.519531 15.480469 C 8.523438 15.609375 8.523438 15.742188 8.523438 15.875 C 8.523438 15.945312 8.523438 16.015625 8.523438 16.089844 C 8.519531 16.148438 8.519531 16.203125 8.519531 16.261719 C 8.601562 16.257812 8.601562 16.257812 8.6875 16.253906 C 8.757812 16.253906 8.828125 16.253906 8.902344 16.253906 C 8.972656 16.25 9.042969 16.25 9.117188 16.25 C 9.300781 16.261719 9.300781 16.261719 9.421875 16.378906 C 9.386719 16.652344 9.386719 16.652344 9.300781 16.738281 C 9.167969 16.746094 9.039062 16.746094 8.90625 16.742188 C 8.796875 16.742188 8.796875 16.742188 8.6875 16.742188 C 8.632812 16.742188 8.578125 16.742188 8.519531 16.738281 C 8.519531 16.792969 8.523438 16.851562 8.523438 16.90625 C 8.527344 17.011719 8.527344 17.011719 8.527344 17.121094 C 8.527344 17.195312 8.53125 17.265625 8.53125 17.335938 C 8.519531 17.519531 8.519531 17.519531 8.398438 17.640625 C 8.125 17.605469 8.125 17.605469 8.039062 17.519531 C 8.035156 17.390625 8.035156 17.257812 8.035156 17.125 C 8.035156 17.019531 8.035156 17.019531 8.039062 16.910156 C 8.039062 16.851562 8.039062 16.796875 8.039062 16.738281 C 7.984375 16.742188 7.929688 16.742188 7.875 16.746094 C 7.765625 16.746094 7.765625 16.746094 7.65625 16.746094 C 7.585938 16.75 7.515625 16.75 7.441406 16.75 C 7.261719 16.738281 7.261719 16.738281 7.140625 16.621094 C 7.171875 16.347656 7.171875 16.347656 7.261719 16.261719 C 7.390625 16.253906 7.523438 16.253906 7.652344 16.257812 C 7.761719 16.257812 7.761719 16.257812 7.871094 16.257812 C 7.925781 16.257812 7.984375 16.257812 8.039062 16.261719 C 8.039062 16.207031 8.039062 16.148438 8.035156 16.09375 C 8.035156 16.023438 8.035156 15.949219 8.03125 15.878906 C 8.03125 15.804688 8.03125 15.734375 8.027344 15.664062 C 8.039062 15.480469 8.039062 15.480469 8.160156 15.359375 Z M 8.160156 15.359375 "/>
<path style=" stroke:none;fill-rule:nonzero;fill:rgb(21.960784%,13.72549%,12.156863%);fill-opacity:1;" d="M 14.820312 18.480469 C 15.421875 18.480469 15.421875 18.480469 15.609375 18.574219 C 15.761719 18.773438 15.75 18.894531 15.71875 19.140625 C 15.660156 19.230469 15.660156 19.230469 15.601562 19.320312 C 15.640625 19.351562 15.679688 19.382812 15.71875 19.417969 C 15.839844 19.558594 15.839844 19.558594 15.878906 19.734375 C 15.839844 19.921875 15.839844 19.921875 15.703125 20.09375 C 15.480469 20.21875 15.480469 20.21875 14.820312 20.21875 C 14.820312 19.644531 14.820312 19.070312 14.820312 18.480469 Z M 14.820312 18.480469 "/>
<path style=" stroke:none;fill-rule:nonzero;fill:rgb(34.117647%,27.058824%,25.882353%);fill-opacity:1;" d="M 15.71875 10.5 C 15.71875 10.519531 15.71875 10.539062 15.71875 10.558594 C 15.683594 10.5625 15.644531 10.566406 15.609375 10.570312 C 14.492188 10.660156 14.492188 10.660156 13.585938 11.257812 C 13.367188 11.53125 13.355469 11.789062 13.359375 12.128906 C 13.390625 12.40625 13.488281 12.582031 13.679688 12.78125 C 14.335938 13.277344 14.914062 13.273438 15.710938 13.25 C 15.777344 13.25 15.847656 13.246094 15.914062 13.246094 C 16.007812 13.242188 16.007812 13.242188 16.101562 13.242188 C 16.261719 13.261719 16.261719 13.261719 16.371094 13.339844 C 16.441406 13.441406 16.441406 13.441406 16.464844 13.585938 C 16.441406 13.738281 16.441406 13.738281 16.347656 13.882812 C 16.199219 13.980469 16.199219 13.980469 16.011719 13.976562 C 15.84375 13.933594 15.6875 13.890625 15.519531 13.832031 C 15.0625 13.6875 14.578125 13.664062 14.101562 13.621094 C 14.101562 13.601562 14.101562 13.582031 14.101562 13.558594 C 14.683594 13.535156 15.179688 13.539062 15.734375 13.746094 C 15.902344 13.800781 16.027344 13.816406 16.199219 13.800781 C 16.277344 13.738281 16.277344 13.738281 16.265625 13.589844 C 16.277344 13.445312 16.277344 13.445312 16.199219 13.378906 C 16.117188 13.386719 16.03125 13.394531 15.949219 13.40625 C 15.171875 13.488281 14.449219 13.496094 13.777344 13.039062 C 13.484375 12.792969 13.246094 12.519531 13.164062 12.136719 C 13.140625 11.765625 13.226562 11.515625 13.449219 11.21875 C 14.085938 10.523438 14.832031 10.460938 15.71875 10.5 Z M 15.71875 10.5 "/>
<path style=" stroke:none;fill-rule:nonzero;fill:rgb(23.921569%,16.078431%,14.901961%);fill-opacity:1;" d="M 18.480469 18.421875 C 18.675781 18.617188 18.863281 18.808594 19.050781 19.015625 C 19.09375 19.066406 19.136719 19.113281 19.183594 19.164062 C 19.332031 19.332031 19.476562 19.507812 19.621094 19.679688 C 19.640625 19.285156 19.660156 18.886719 19.679688 18.480469 C 19.738281 18.480469 19.796875 18.480469 19.859375 18.480469 C 19.859375 19.074219 19.859375 19.667969 19.859375 20.28125 C 19.613281 20.03125 19.382812 19.78125 19.15625 19.519531 C 19.121094 19.476562 19.085938 19.4375 19.046875 19.394531 C 19.015625 19.355469 18.980469 19.316406 18.945312 19.277344 C 18.914062 19.242188 18.886719 19.207031 18.855469 19.171875 C 18.78125 19.078125 18.78125 19.078125 18.71875 18.960938 C 18.699219 19.375 18.679688 19.792969 18.660156 20.21875 C 18.601562 20.21875 18.542969 20.21875 18.480469 20.21875 C 18.480469 19.625 18.480469 19.03125 18.480469 18.421875 Z M 18.480469 18.421875 "/>
<path style=" stroke:none;fill-rule:nonzero;fill:rgb(22.745098%,14.509804%,12.941176%);fill-opacity:1;" d="M 17.101562 18.421875 C 17.285156 18.605469 17.332031 18.703125 17.414062 18.941406 C 17.441406 19.007812 17.464844 19.074219 17.488281 19.144531 C 17.523438 19.246094 17.523438 19.246094 17.5625 19.355469 C 17.585938 19.421875 17.609375 19.492188 17.636719 19.566406 C 17.820312 20.082031 17.820312 20.082031 17.820312 20.21875 C 17.707031 20.210938 17.707031 20.210938 17.578125 20.160156 C 17.503906 19.976562 17.503906 19.976562 17.460938 19.800781 C 17.242188 19.78125 17.023438 19.761719 16.800781 19.738281 C 16.761719 19.898438 16.722656 20.058594 16.679688 20.21875 C 16.601562 20.199219 16.523438 20.179688 16.441406 20.160156 C 16.65625 19.585938 16.875 19.011719 17.101562 18.421875 Z M 17.101562 18.421875 "/>
<path style=" stroke:none;fill-rule:nonzero;fill:rgb(22.352941%,14.509804%,12.941176%);fill-opacity:1;" d="M 6.78125 18.421875 C 6.964844 18.605469 7.011719 18.703125 7.09375 18.941406 C 7.121094 19.007812 7.144531 19.074219 7.167969 19.144531 C 7.203125 19.246094 7.203125 19.246094 7.242188 19.355469 C 7.265625 19.421875 7.292969 19.492188 7.316406 19.566406 C 7.5 20.082031 7.5 20.082031 7.5 20.21875 C 7.386719 20.210938 7.386719 20.210938 7.261719 20.160156 C 7.183594 19.976562 7.183594 19.976562 7.140625 19.800781 C 6.921875 19.78125 6.703125 19.761719 6.480469 19.738281 C 6.441406 19.898438 6.402344 20.058594 6.359375 20.21875 C 6.28125 20.199219 6.203125 20.179688 6.121094 20.160156 C 6.335938 19.585938 6.554688 19.011719 6.78125 18.421875 Z M 6.78125 18.421875 "/>
<path style=" stroke:none;fill-rule:nonzero;fill:rgb(22.745098%,14.901961%,13.333333%);fill-opacity:1;" d="M 22.800781 18.421875 C 22.984375 18.605469 23.03125 18.703125 23.117188 18.941406 C 23.140625 19.007812 23.164062 19.074219 23.1875 19.144531 C 23.222656 19.246094 23.222656 19.246094 23.261719 19.355469 C 23.285156 19.421875 23.3125 19.492188 23.335938 19.566406 C 23.519531 20.082031 23.519531 20.082031 23.519531 20.21875 C 23.40625 20.210938 23.40625 20.210938 23.28125 20.160156 C 23.203125 19.976562 23.203125 19.976562 23.160156 19.800781 C 22.941406 19.78125 22.722656 19.761719 22.5 19.738281 C 22.460938 19.898438 22.421875 20.058594 22.378906 20.21875 C 22.300781 20.199219 22.222656 20.179688 22.140625 20.160156 C 22.359375 19.585938 22.574219 19.011719 22.800781 18.421875 Z M 22.800781 18.421875 "/>
<path style=" stroke:none;fill-rule:nonzero;fill:rgb(27.058824%,19.215686%,18.039216%);fill-opacity:1;" d="M 9.78125 18.480469 C 9.839844 18.480469 9.898438 18.480469 9.960938 18.480469 C 9.960938 18.738281 9.960938 18.996094 9.960938 19.261719 C 10.257812 19.261719 10.554688 19.261719 10.859375 19.261719 C 10.859375 19.003906 10.859375 18.746094 10.859375 18.480469 C 10.9375 18.480469 11.019531 18.480469 11.101562 18.480469 C 11.101562 19.054688 11.101562 19.628906 11.101562 20.21875 C 11.019531 20.21875 10.941406 20.21875 10.859375 20.21875 C 10.859375 19.960938 10.859375 19.707031 10.859375 19.441406 C 10.5625 19.441406 10.265625 19.441406 9.960938 19.441406 C 9.960938 19.699219 9.960938 19.953125 9.960938 20.21875 C 9.902344 20.21875 9.839844 20.21875 9.78125 20.21875 C 9.78125 19.644531 9.78125 19.070312 9.78125 18.480469 Z M 9.78125 18.480469 "/>
<path style=" stroke:none;fill-rule:nonzero;fill:rgb(24.705882%,16.862745%,15.686275%);fill-opacity:1;" d="M 11.878906 18.480469 C 11.9375 18.480469 12 18.480469 12.058594 18.480469 C 12.0625 18.515625 12.0625 18.554688 12.066406 18.59375 C 12.070312 18.757812 12.078125 18.925781 12.085938 19.09375 C 12.089844 19.152344 12.089844 19.210938 12.09375 19.269531 C 12.097656 19.328125 12.097656 19.382812 12.101562 19.441406 C 12.101562 19.492188 12.105469 19.542969 12.109375 19.597656 C 12.121094 19.730469 12.144531 19.851562 12.179688 19.980469 C 12.265625 19.988281 12.351562 19.992188 12.4375 19.996094 C 12.511719 20 12.511719 20 12.585938 20.003906 C 12.726562 19.992188 12.726562 19.992188 12.816406 19.878906 C 12.914062 19.71875 12.925781 19.625 12.929688 19.441406 C 12.933594 19.386719 12.933594 19.328125 12.9375 19.269531 C 12.9375 19.214844 12.941406 19.15625 12.941406 19.09375 C 12.941406 19.035156 12.945312 18.976562 12.949219 18.917969 C 12.953125 18.769531 12.957031 18.625 12.960938 18.480469 C 13.019531 18.480469 13.078125 18.480469 13.140625 18.480469 C 13.144531 18.671875 13.148438 18.863281 13.152344 19.058594 C 13.152344 19.113281 13.152344 19.164062 13.15625 19.222656 C 13.160156 19.597656 13.117188 19.863281 12.859375 20.152344 C 12.652344 20.253906 12.460938 20.269531 12.238281 20.21875 C 12.0625 20.074219 12.0625 20.074219 11.941406 19.921875 C 11.921875 19.898438 11.902344 19.878906 11.878906 19.859375 C 11.875 19.757812 11.875 19.65625 11.875 19.550781 C 11.875 19.488281 11.875 19.429688 11.875 19.363281 C 11.875 19.300781 11.875 19.234375 11.875 19.167969 C 11.875 19.101562 11.875 19.035156 11.878906 18.96875 C 11.878906 18.804688 11.878906 18.640625 11.878906 18.480469 Z M 11.878906 18.480469 "/>
<path style=" stroke:none;fill-rule:nonzero;fill:rgb(32.156863%,25.490196%,23.921569%);fill-opacity:1;" d="M 20.878906 10.5 C 20.710938 10.667969 20.574219 10.648438 20.335938 10.667969 C 19.851562 10.722656 19.472656 10.847656 19.148438 11.21875 C 18.769531 11.753906 18.734375 12.195312 18.78125 12.839844 C 18.871094 13.246094 19.066406 13.527344 19.351562 13.824219 C 19.527344 14.015625 19.519531 14.191406 19.515625 14.441406 C 19.492188 14.660156 19.40625 14.777344 19.261719 14.941406 C 18.996094 15.117188 18.792969 15.140625 18.480469 15.121094 C 18.644531 15.011719 18.746094 14.972656 18.929688 14.921875 C 19.109375 14.863281 19.191406 14.828125 19.328125 14.691406 C 19.40625 14.4375 19.40625 14.234375 19.320312 13.980469 C 19.226562 13.851562 19.121094 13.738281 19.011719 13.625 C 18.660156 13.230469 18.554688 12.820312 18.558594 12.300781 C 18.589844 11.789062 18.8125 11.367188 19.152344 10.984375 C 19.671875 10.519531 20.203125 10.457031 20.878906 10.5 Z M 20.878906 10.5 "/>
<path style=" stroke:none;fill-rule:nonzero;fill:rgb(17.254902%,19.215686%,20%);fill-opacity:1;" d="M 9.351562 13.3125 C 9.425781 13.3125 9.503906 13.3125 9.578125 13.3125 C 9.640625 13.3125 9.640625 13.3125 9.699219 13.3125 C 9.828125 13.316406 9.957031 13.316406 10.082031 13.316406 C 10.171875 13.316406 10.257812 13.316406 10.34375 13.316406 C 10.554688 13.316406 10.769531 13.320312 10.980469 13.320312 C 11.015625 13.433594 11.015625 13.433594 11.039062 13.558594 C 10.921875 13.679688 10.921875 13.679688 10.746094 13.695312 C 10.675781 13.691406 10.601562 13.691406 10.527344 13.691406 C 10.410156 13.691406 10.410156 13.691406 10.289062 13.691406 C 10.207031 13.691406 10.125 13.6875 10.042969 13.6875 C 9.960938 13.6875 9.875 13.6875 9.792969 13.6875 C 9.589844 13.683594 9.382812 13.683594 9.179688 13.679688 C 9.15625 13.582031 9.136719 13.480469 9.121094 13.378906 C 9.179688 13.320312 9.179688 13.320312 9.351562 13.3125 Z M 9.351562 13.3125 "/>
<path style=" stroke:none;fill-rule:nonzero;fill:rgb(23.529412%,15.686275%,14.509804%);fill-opacity:1;" d="M 8.820312 18.480469 C 8.96875 18.5625 8.96875 18.5625 9.058594 18.660156 C 9.058594 18.699219 9.058594 18.738281 9.058594 18.78125 C 8.84375 18.761719 8.625 18.742188 8.398438 18.71875 C 8.378906 18.820312 8.359375 18.917969 8.339844 19.019531 C 8.371094 19.039062 8.402344 19.058594 8.4375 19.078125 C 8.929688 19.375 8.929688 19.375 9.058594 19.558594 C 9.09375 19.792969 9.09375 19.921875 8.972656 20.125 C 8.746094 20.265625 8.539062 20.261719 8.28125 20.21875 C 8.125 20.128906 8.125 20.128906 8.039062 20.039062 C 8.058594 19.960938 8.078125 19.882812 8.101562 19.800781 C 8.128906 19.828125 8.160156 19.859375 8.191406 19.890625 C 8.40625 20.019531 8.570312 19.992188 8.820312 19.980469 C 8.84375 19.808594 8.84375 19.808594 8.820312 19.621094 C 8.691406 19.523438 8.691406 19.523438 8.519531 19.441406 C 8.117188 19.164062 8.117188 19.164062 8.058594 18.890625 C 8.160156 18.476562 8.433594 18.414062 8.820312 18.480469 Z M 8.820312 18.480469 "/>
<path style=" stroke:none;fill-rule:nonzero;fill:rgb(21.176471%,13.333333%,11.764706%);fill-opacity:1;" d="M 21.300781 18.480469 C 21.449219 18.5625 21.449219 18.5625 21.539062 18.660156 C 21.539062 18.699219 21.539062 18.738281 21.539062 18.78125 C 21.320312 18.761719 21.105469 18.742188 20.878906 18.71875 C 20.859375 18.820312 20.839844 18.917969 20.820312 19.019531 C 20.851562 19.039062 20.882812 19.058594 20.917969 19.078125 C 21.410156 19.375 21.410156 19.375 21.539062 19.558594 C 21.574219 19.792969 21.574219 19.921875 21.453125 20.125 C 21.226562 20.265625 21.019531 20.261719 20.761719 20.21875 C 20.605469 20.128906 20.605469 20.128906 20.519531 20.039062 C 20.539062 19.960938 20.558594 19.882812 20.578125 19.800781 C 20.609375 19.828125 20.640625 19.859375 20.671875 19.890625 C 20.886719 20.019531 21.050781 19.992188 21.300781 19.980469 C 21.320312 19.808594 21.320312 19.808594 21.300781 19.621094 C 21.199219 19.511719 21.199219 19.511719 21.058594 19.441406 C 20.675781 19.214844 20.675781 19.214844 20.578125 19.078125 C 20.546875 18.867188 20.554688 18.761719 20.671875 18.578125 C 20.878906 18.441406 21.054688 18.4375 21.300781 18.480469 Z M 21.300781 18.480469 "/>
<path style=" stroke:none;fill-rule:nonzero;fill:rgb(92.941176%,92.54902%,92.54902%);fill-opacity:1;" d="M 16.199219 13.320312 C 16.320312 13.441406 16.320312 13.441406 16.335938 13.589844 C 16.320312 13.738281 16.320312 13.738281 16.199219 13.859375 C 15.882812 13.839844 15.589844 13.75 15.285156 13.660156 C 15.070312 13.605469 14.859375 13.582031 14.640625 13.558594 C 14.8125 13.445312 14.867188 13.421875 15.0625 13.402344 C 15.132812 13.394531 15.132812 13.394531 15.203125 13.386719 C 15.253906 13.382812 15.300781 13.378906 15.351562 13.371094 C 15.402344 13.367188 15.449219 13.363281 15.5 13.355469 C 16.011719 13.304688 16.011719 13.304688 16.199219 13.320312 Z M 16.199219 13.320312 "/>
<path style=" stroke:none;fill-rule:nonzero;fill:rgb(20.392157%,12.156863%,10.588235%);fill-opacity:1;" d="M 24.179688 18.480469 C 24.238281 18.480469 24.296875 18.480469 24.359375 18.480469 C 24.359375 18.996094 24.359375 19.507812 24.359375 20.039062 C 24.597656 20.039062 24.835938 20.039062 25.078125 20.039062 C 25.078125 20.097656 25.078125 20.160156 25.078125 20.21875 C 24.78125 20.21875 24.484375 20.21875 24.179688 20.21875 C 24.179688 19.644531 24.179688 19.070312 24.179688 18.480469 Z M 24.179688 18.480469 "/>
<path style=" stroke:none;fill-rule:nonzero;fill:rgb(24.313725%,15.294118%,9.019608%);fill-opacity:1;" d="M 9.359375 21.421875 C 9.539062 21.601562 9.71875 21.78125 9.898438 21.960938 C 9.929688 21.921875 9.960938 21.882812 9.988281 21.84375 C 10.027344 21.792969 10.066406 21.742188 10.105469 21.691406 C 10.144531 21.640625 10.183594 21.589844 10.222656 21.539062 C 10.253906 21.5 10.285156 21.460938 10.320312 21.421875 C 10.339844 21.421875 10.359375 21.421875 10.378906 21.421875 C 10.378906 21.777344 10.378906 22.132812 10.378906 22.5 C 10.339844 22.5 10.300781 22.5 10.261719 22.5 C 10.238281 22.28125 10.21875 22.0625 10.199219 21.839844 C 10.101562 21.980469 10.003906 22.117188 9.898438 22.261719 C 9.761719 22.125 9.648438 22.003906 9.539062 21.839844 C 9.519531 22.058594 9.5 22.277344 9.480469 22.5 C 9.441406 22.5 9.402344 22.5 9.359375 22.5 C 9.359375 22.144531 9.359375 21.789062 9.359375 21.421875 Z M 9.359375 21.421875 "/>
<path style=" stroke:none;fill-rule:nonzero;fill:rgb(92.54902%,92.156863%,92.156863%);fill-opacity:1;" d="M 15 19.378906 C 15.375 19.359375 15.375 19.359375 15.566406 19.453125 C 15.660156 19.558594 15.660156 19.558594 15.6875 19.710938 C 15.660156 19.859375 15.660156 19.859375 15.601562 19.96875 C 15.40625 20.085938 15.222656 20.050781 15 20.039062 C 15 19.820312 15 19.605469 15 19.378906 Z M 15 19.378906 "/>
<path style=" stroke:none;fill-rule:nonzero;fill:rgb(29.411765%,20.392157%,10.980392%);fill-opacity:1;" d="M 11.160156 21.421875 C 11.347656 21.515625 11.371094 21.703125 11.4375 21.890625 C 11.453125 21.929688 11.464844 21.96875 11.480469 22.007812 C 11.539062 22.179688 11.578125 22.316406 11.578125 22.5 C 11.539062 22.5 11.5 22.5 11.460938 22.5 C 11.441406 22.402344 11.421875 22.300781 11.398438 22.199219 C 11.261719 22.199219 11.121094 22.199219 10.980469 22.199219 C 10.960938 22.300781 10.941406 22.398438 10.921875 22.5 C 10.859375 22.480469 10.800781 22.460938 10.738281 22.441406 C 10.796875 22.28125 10.855469 22.121094 10.917969 21.964844 C 10.933594 21.917969 10.949219 21.875 10.964844 21.828125 C 11.09375 21.488281 11.09375 21.488281 11.160156 21.421875 Z M 11.160156 21.421875 "/>
<path style=" stroke:none;fill-rule:nonzero;fill:rgb(26.27451%,17.254902%,9.803922%);fill-opacity:1;" d="M 17.578125 21.421875 C 17.621094 21.421875 17.660156 21.421875 17.699219 21.421875 C 17.761719 21.578125 17.820312 21.734375 17.878906 21.890625 C 17.898438 21.9375 17.914062 21.980469 17.933594 22.027344 C 18.058594 22.367188 18.058594 22.367188 18.058594 22.5 C 18.019531 22.5 17.980469 22.5 17.941406 22.5 C 17.929688 22.460938 17.917969 22.421875 17.90625 22.382812 C 17.824219 22.234375 17.824219 22.234375 17.601562 22.214844 C 17.535156 22.210938 17.46875 22.207031 17.398438 22.199219 C 17.378906 22.300781 17.359375 22.398438 17.339844 22.5 C 17.300781 22.5 17.261719 22.5 17.21875 22.5 C 17.324219 22.132812 17.441406 21.777344 17.578125 21.421875 Z M 17.578125 21.421875 "/>
<path style=" stroke:none;fill-rule:nonzero;fill:rgb(24.705882%,16.862745%,15.686275%);fill-opacity:1;" d="M 18.960938 16.921875 C 19.15625 16.988281 19.320312 17.078125 19.492188 17.191406 C 19.972656 17.496094 20.480469 17.519531 21.03125 17.417969 C 21.296875 17.351562 21.53125 17.234375 21.769531 17.101562 C 21.898438 17.039062 21.898438 17.039062 22.078125 17.039062 C 22.019531 17.230469 21.96875 17.277344 21.789062 17.367188 C 21.066406 17.621094 20.222656 17.765625 19.503906 17.417969 C 19.304688 17.292969 19.121094 17.152344 18.960938 16.980469 C 18.960938 16.960938 18.960938 16.941406 18.960938 16.921875 Z M 18.960938 16.921875 "/>
<path style=" stroke:none;fill-rule:nonzero;fill:rgb(28.235294%,18.823529%,10.196078%);fill-opacity:1;" d="M 13.140625 21.421875 C 13.179688 21.421875 13.21875 21.421875 13.261719 21.421875 C 13.261719 21.578125 13.261719 21.738281 13.261719 21.898438 C 13.457031 21.898438 13.65625 21.898438 13.859375 21.898438 C 13.859375 21.742188 13.859375 21.582031 13.859375 21.421875 C 13.898438 21.421875 13.9375 21.421875 13.980469 21.421875 C 13.980469 21.777344 13.980469 22.132812 13.980469 22.5 C 13.941406 22.5 13.902344 22.5 13.859375 22.5 C 13.859375 22.339844 13.859375 22.183594 13.859375 22.019531 C 13.660156 22.019531 13.464844 22.019531 13.261719 22.019531 C 13.261719 22.179688 13.261719 22.335938 13.261719 22.5 C 13.21875 22.5 13.179688 22.5 13.140625 22.5 C 13.140625 22.144531 13.140625 21.789062 13.140625 21.421875 Z M 13.140625 21.421875 "/>
<path style=" stroke:none;fill-rule:nonzero;fill:rgb(36.078431%,29.411765%,28.235294%);fill-opacity:1;" d="M 16.921875 16.078125 C 16.960938 16.121094 17 16.160156 17.039062 16.199219 C 16.675781 16.875 16.253906 17.265625 15.515625 17.507812 C 15.246094 17.574219 15.035156 17.589844 14.761719 17.519531 C 14.761719 17.5 14.761719 17.480469 14.761719 17.460938 C 14.851562 17.445312 14.851562 17.445312 14.949219 17.433594 C 15.703125 17.316406 16.191406 17.101562 16.703125 16.515625 C 16.804688 16.375 16.863281 16.242188 16.921875 16.078125 Z M 16.921875 16.078125 "/>
<path style=" stroke:none;fill-rule:nonzero;fill:rgb(27.058824%,17.647059%,9.803922%);fill-opacity:1;" d="M 15.71875 21.421875 C 15.78125 21.460938 15.839844 21.5 15.898438 21.539062 C 15.898438 21.578125 15.898438 21.621094 15.898438 21.660156 C 15.839844 21.640625 15.78125 21.621094 15.71875 21.601562 C 15.507812 21.585938 15.507812 21.585938 15.300781 21.601562 C 15.171875 21.707031 15.171875 21.707031 15.164062 21.832031 C 15.164062 21.875 15.164062 21.917969 15.164062 21.960938 C 15.164062 22.003906 15.164062 22.042969 15.164062 22.085938 C 15.171875 22.214844 15.171875 22.214844 15.300781 22.320312 C 15.523438 22.332031 15.6875 22.332031 15.898438 22.261719 C 15.898438 22.300781 15.898438 22.339844 15.898438 22.378906 C 15.679688 22.527344 15.496094 22.550781 15.238281 22.5 C 15.082031 22.375 15.015625 22.28125 14.976562 22.082031 C 14.957031 21.84375 14.984375 21.742188 15.125 21.539062 C 15.34375 21.390625 15.460938 21.386719 15.71875 21.421875 Z M 15.71875 21.421875 "/>
<path style=" stroke:none;fill-rule:nonzero;fill:rgb(29.803922%,20.392157%,10.980392%);fill-opacity:1;" d="M 21.777344 21.40625 C 21.835938 21.410156 21.898438 21.414062 21.960938 21.421875 C 22 21.480469 22.039062 21.539062 22.078125 21.601562 C 21.941406 21.601562 21.804688 21.601562 21.660156 21.601562 C 21.660156 21.660156 21.660156 21.71875 21.660156 21.78125 C 21.835938 21.910156 21.835938 21.910156 22.019531 22.019531 C 22.078125 22.078125 22.078125 22.078125 22.089844 22.226562 C 22.078125 22.378906 22.078125 22.378906 21.960938 22.5 C 21.71875 22.519531 21.628906 22.519531 21.421875 22.378906 C 21.421875 22.339844 21.421875 22.300781 21.421875 22.261719 C 21.578125 22.28125 21.738281 22.300781 21.898438 22.320312 C 21.917969 22.242188 21.941406 22.160156 21.960938 22.078125 C 21.902344 22.0625 21.847656 22.046875 21.789062 22.03125 C 21.601562 21.960938 21.601562 21.960938 21.480469 21.78125 C 21.523438 21.425781 21.523438 21.425781 21.777344 21.40625 Z M 21.777344 21.40625 "/>
<path style=" stroke:none;fill-rule:nonzero;fill:rgb(29.019608%,19.607843%,10.588235%);fill-opacity:1;" d="M 18.71875 21.402344 C 18.78125 21.40625 18.839844 21.414062 18.898438 21.421875 C 18.941406 21.480469 18.980469 21.539062 19.019531 21.601562 C 18.882812 21.601562 18.742188 21.601562 18.601562 21.601562 C 18.605469 21.714844 18.605469 21.714844 18.660156 21.839844 C 18.808594 21.941406 18.808594 21.941406 18.960938 22.019531 C 19.019531 22.078125 19.019531 22.078125 19.03125 22.226562 C 19.019531 22.378906 19.019531 22.378906 18.898438 22.5 C 18.65625 22.519531 18.566406 22.519531 18.359375 22.378906 C 18.359375 22.339844 18.359375 22.300781 18.359375 22.261719 C 18.519531 22.28125 18.675781 22.300781 18.839844 22.320312 C 18.859375 22.242188 18.878906 22.160156 18.898438 22.078125 C 18.84375 22.0625 18.785156 22.046875 18.726562 22.027344 C 18.539062 21.960938 18.539062 21.960938 18.421875 21.839844 C 18.40625 21.691406 18.40625 21.691406 18.421875 21.539062 C 18.539062 21.421875 18.539062 21.421875 18.71875 21.402344 Z M 18.71875 21.402344 "/>
<path style=" stroke:none;fill-rule:nonzero;fill:rgb(30.588235%,21.176471%,10.980392%);fill-opacity:1;" d="M 20.460938 21.421875 C 20.65625 21.421875 20.855469 21.421875 21.058594 21.421875 C 21.058594 21.460938 21.058594 21.5 21.058594 21.539062 C 20.902344 21.539062 20.742188 21.539062 20.578125 21.539062 C 20.578125 21.660156 20.578125 21.777344 20.578125 21.898438 C 20.699219 21.898438 20.816406 21.898438 20.941406 21.898438 C 20.941406 21.917969 20.941406 21.941406 20.941406 21.960938 C 20.820312 21.960938 20.703125 21.960938 20.578125 21.960938 C 20.578125 22.097656 20.578125 22.238281 20.578125 22.378906 C 20.738281 22.378906 20.898438 22.378906 21.058594 22.378906 C 21.058594 22.417969 21.058594 22.460938 21.058594 22.5 C 20.863281 22.5 20.664062 22.5 20.460938 22.5 C 20.460938 22.144531 20.460938 21.789062 20.460938 21.421875 Z M 20.460938 21.421875 "/>
<path style=" stroke:none;fill-rule:nonzero;fill:rgb(25.882353%,16.862745%,9.803922%);fill-opacity:1;" d="M 19.734375 21.40625 C 19.796875 21.410156 19.859375 21.414062 19.921875 21.421875 C 19.960938 21.480469 20 21.539062 20.039062 21.601562 C 19.902344 21.601562 19.761719 21.601562 19.621094 21.601562 C 19.628906 21.714844 19.628906 21.714844 19.679688 21.839844 C 19.828125 21.941406 19.828125 21.941406 19.980469 22.019531 C 20.039062 22.078125 20.039062 22.078125 20.050781 22.226562 C 20.039062 22.378906 20.039062 22.378906 19.921875 22.5 C 19.675781 22.519531 19.585938 22.519531 19.378906 22.378906 C 19.378906 22.339844 19.378906 22.300781 19.378906 22.261719 C 19.539062 22.28125 19.695312 22.300781 19.859375 22.320312 C 19.878906 22.242188 19.898438 22.160156 19.921875 22.078125 C 19.863281 22.0625 19.804688 22.046875 19.746094 22.03125 C 19.558594 21.960938 19.558594 21.960938 19.441406 21.78125 C 19.480469 21.425781 19.480469 21.425781 19.734375 21.40625 Z M 19.734375 21.40625 "/>
<path style=" stroke:none;fill-rule:nonzero;fill:rgb(94.901961%,94.901961%,94.901961%);fill-opacity:1;" d="M 15 18.660156 C 15.335938 18.644531 15.335938 18.644531 15.539062 18.78125 C 15.558594 18.929688 15.558594 18.929688 15.539062 19.078125 C 15.421875 19.199219 15.421875 19.199219 15.203125 19.207031 C 15.136719 19.203125 15.070312 19.203125 15 19.199219 C 15 19.023438 15 18.84375 15 18.660156 Z M 15 18.660156 "/>
<path style=" stroke:none;fill-rule:nonzero;fill:rgb(18.039216%,9.411765%,7.843137%);fill-opacity:1;" d="M 19.738281 18.480469 C 19.78125 18.480469 19.820312 18.480469 19.859375 18.480469 C 19.859375 19.074219 19.859375 19.667969 19.859375 20.28125 C 19.78125 20.199219 19.703125 20.121094 19.621094 20.039062 C 19.621094 19.960938 19.621094 19.882812 19.621094 19.800781 C 19.660156 19.800781 19.699219 19.800781 19.738281 19.800781 C 19.738281 19.363281 19.738281 18.929688 19.738281 18.480469 Z M 19.738281 18.480469 "/>
<path style=" stroke:none;fill-rule:nonzero;fill:rgb(21.176471%,13.333333%,11.764706%);fill-opacity:1;" d="M 12.960938 18.480469 C 13.019531 18.480469 13.078125 18.480469 13.140625 18.480469 C 13.144531 18.675781 13.144531 18.871094 13.148438 19.070312 C 13.148438 19.125 13.148438 19.179688 13.152344 19.238281 C 13.152344 19.292969 13.152344 19.34375 13.152344 19.398438 C 13.152344 19.449219 13.152344 19.5 13.152344 19.550781 C 13.140625 19.679688 13.140625 19.679688 13.019531 19.859375 C 12.980469 19.859375 12.941406 19.859375 12.898438 19.859375 C 12.917969 19.40625 12.941406 18.949219 12.960938 18.480469 Z M 12.960938 18.480469 "/>
<path style=" stroke:none;fill-rule:nonzero;fill:rgb(85.490196%,84.313725%,83.921569%);fill-opacity:1;" d="M 22.800781 18.898438 C 22.953125 18.976562 22.960938 19.035156 23.015625 19.191406 C 23.03125 19.234375 23.046875 19.277344 23.066406 19.320312 C 23.101562 19.441406 23.101562 19.441406 23.101562 19.621094 C 22.921875 19.621094 22.742188 19.621094 22.558594 19.621094 C 22.589844 19.523438 22.617188 19.425781 22.644531 19.328125 C 22.664062 19.273438 22.679688 19.21875 22.695312 19.164062 C 22.738281 19.019531 22.738281 19.019531 22.800781 18.898438 Z M 22.800781 18.898438 "/>
<path style=" stroke:none;fill-rule:nonzero;fill:rgb(85.490196%,84.313725%,83.921569%);fill-opacity:1;" d="M 17.101562 18.898438 C 17.253906 18.976562 17.261719 19.035156 17.316406 19.191406 C 17.332031 19.234375 17.347656 19.277344 17.363281 19.320312 C 17.398438 19.441406 17.398438 19.441406 17.398438 19.621094 C 17.222656 19.621094 17.042969 19.621094 16.859375 19.621094 C 16.886719 19.523438 16.917969 19.425781 16.945312 19.328125 C 16.960938 19.273438 16.976562 19.21875 16.996094 19.164062 C 17.039062 19.019531 17.039062 19.019531 17.101562 18.898438 Z M 17.101562 18.898438 "/>
<path style=" stroke:none;fill-rule:nonzero;fill:rgb(85.490196%,84.313725%,83.921569%);fill-opacity:1;" d="M 6.78125 18.898438 C 6.933594 18.976562 6.941406 19.035156 6.996094 19.191406 C 7.011719 19.234375 7.027344 19.277344 7.042969 19.320312 C 7.078125 19.441406 7.078125 19.441406 7.078125 19.621094 C 6.902344 19.621094 6.722656 19.621094 6.539062 19.621094 C 6.570312 19.523438 6.597656 19.425781 6.625 19.328125 C 6.640625 19.273438 6.660156 19.21875 6.675781 19.164062 C 6.71875 19.019531 6.71875 19.019531 6.78125 18.898438 Z M 6.78125 18.898438 "/>
<path style=" stroke:none;fill-rule:nonzero;fill:rgb(30.980392%,21.568627%,11.372549%);fill-opacity:1;" d="M 11.941406 21.421875 C 12.21875 21.421875 12.496094 21.421875 12.78125 21.421875 C 12.78125 21.460938 12.78125 21.5 12.78125 21.539062 C 12.660156 21.539062 12.542969 21.539062 12.421875 21.539062 C 12.421875 21.855469 12.421875 22.171875 12.421875 22.5 C 12.378906 22.5 12.339844 22.5 12.300781 22.5 C 12.300781 22.183594 12.300781 21.867188 12.300781 21.539062 C 12.179688 21.539062 12.0625 21.539062 11.941406 21.539062 C 11.941406 21.5 11.941406 21.460938 11.941406 21.421875 Z M 11.941406 21.421875 "/>
<path style=" stroke:none;fill-rule:nonzero;fill:rgb(26.27451%,18.823529%,17.254902%);fill-opacity:1;" d="M 20.578125 19.800781 C 20.609375 19.828125 20.640625 19.859375 20.671875 19.890625 C 20.890625 20.023438 21.042969 19.996094 21.300781 19.980469 C 21.359375 19.960938 21.417969 19.941406 21.480469 19.921875 C 21.457031 20.035156 21.457031 20.035156 21.421875 20.160156 C 21.214844 20.261719 20.984375 20.242188 20.761719 20.21875 C 20.605469 20.128906 20.605469 20.128906 20.519531 20.039062 C 20.539062 19.960938 20.558594 19.882812 20.578125 19.800781 Z M 20.578125 19.800781 "/>
<path style=" stroke:none;fill-rule:nonzero;fill:rgb(22.352941%,14.117647%,12.941176%);fill-opacity:1;" d="M 21.300781 18.480469 C 21.449219 18.5625 21.449219 18.5625 21.539062 18.660156 C 21.539062 18.699219 21.539062 18.738281 21.539062 18.78125 C 21.496094 18.773438 21.449219 18.769531 21.402344 18.765625 C 21.34375 18.757812 21.28125 18.753906 21.222656 18.746094 C 21.160156 18.738281 21.101562 18.734375 21.042969 18.726562 C 20.875 18.710938 20.875 18.710938 20.699219 18.78125 C 20.679688 18.878906 20.660156 18.976562 20.640625 19.078125 C 20.621094 19.078125 20.601562 19.078125 20.578125 19.078125 C 20.5625 18.871094 20.558594 18.757812 20.671875 18.578125 C 20.878906 18.441406 21.054688 18.4375 21.300781 18.480469 Z M 21.300781 18.480469 "/>
<path style=" stroke:none;fill-rule:nonzero;fill:rgb(22.352941%,14.117647%,12.941176%);fill-opacity:1;" d="M 8.820312 18.480469 C 8.96875 18.5625 8.96875 18.5625 9.058594 18.660156 C 9.058594 18.699219 9.058594 18.738281 9.058594 18.78125 C 9.015625 18.773438 8.96875 18.769531 8.921875 18.765625 C 8.863281 18.757812 8.800781 18.753906 8.742188 18.746094 C 8.683594 18.738281 8.621094 18.734375 8.5625 18.726562 C 8.394531 18.710938 8.394531 18.710938 8.21875 18.78125 C 8.199219 18.878906 8.179688 18.976562 8.160156 19.078125 C 8.140625 19.078125 8.121094 19.078125 8.101562 19.078125 C 8.082031 18.871094 8.078125 18.757812 8.191406 18.578125 C 8.398438 18.441406 8.574219 18.4375 8.820312 18.480469 Z M 8.820312 18.480469 "/>
<path style=" stroke:none;fill-rule:nonzero;fill:rgb(36.078431%,29.803922%,28.627451%);fill-opacity:1;" d="M 20.480469 10.492188 C 20.554688 10.492188 20.628906 10.496094 20.707031 10.496094 C 20.792969 10.496094 20.792969 10.496094 20.878906 10.5 C 20.710938 10.671875 20.566406 10.648438 20.328125 10.671875 C 19.976562 10.710938 19.734375 10.785156 19.441406 10.980469 C 19.378906 10.960938 19.320312 10.941406 19.261719 10.921875 C 19.332031 10.871094 19.40625 10.824219 19.480469 10.777344 C 19.542969 10.738281 19.542969 10.738281 19.605469 10.699219 C 19.90625 10.523438 20.128906 10.484375 20.480469 10.492188 Z M 20.480469 10.492188 "/>
<path style=" stroke:none;fill-rule:nonzero;fill:rgb(25.098039%,16.078431%,9.411765%);fill-opacity:1;" d="M 16.320312 21.421875 C 16.359375 21.421875 16.398438 21.421875 16.441406 21.421875 C 16.441406 21.738281 16.441406 22.054688 16.441406 22.378906 C 16.578125 22.378906 16.71875 22.378906 16.859375 22.378906 C 16.859375 22.417969 16.859375 22.460938 16.859375 22.5 C 16.683594 22.5 16.503906 22.5 16.320312 22.5 C 16.320312 22.144531 16.320312 21.789062 16.320312 21.421875 Z M 16.320312 21.421875 "/>
<path style=" stroke:none;fill-rule:nonzero;fill:rgb(27.45098%,18.431373%,10.196078%);fill-opacity:1;" d="M 11.28125 21.78125 C 11.445312 21.921875 11.492188 22.027344 11.53125 22.242188 C 11.539062 22.289062 11.550781 22.339844 11.558594 22.386719 C 11.566406 22.425781 11.574219 22.460938 11.578125 22.5 C 11.539062 22.5 11.5 22.5 11.460938 22.5 C 11.441406 22.402344 11.421875 22.300781 11.398438 22.199219 C 11.261719 22.199219 11.121094 22.199219 10.980469 22.199219 C 10.960938 22.300781 10.941406 22.398438 10.921875 22.5 C 10.859375 22.480469 10.800781 22.460938 10.738281 22.441406 C 10.800781 22.320312 10.859375 22.203125 10.921875 22.078125 C 11.058594 22.101562 11.195312 22.121094 11.339844 22.140625 C 11.320312 22.019531 11.300781 21.902344 11.28125 21.78125 Z M 11.28125 21.78125 "/>
<path style=" stroke:none;fill-rule:nonzero;fill:rgb(36.862745%,27.058824%,13.333333%);fill-opacity:1;" d="M 17.578125 21.71875 C 17.671875 21.796875 17.671875 21.796875 17.761719 21.898438 C 17.761719 21.980469 17.761719 22.058594 17.761719 22.140625 C 17.640625 22.140625 17.523438 22.140625 17.398438 22.140625 C 17.378906 22.257812 17.359375 22.378906 17.339844 22.5 C 17.300781 22.5 17.261719 22.5 17.21875 22.5 C 17.246094 22.402344 17.273438 22.308594 17.296875 22.210938 C 17.3125 22.15625 17.328125 22.105469 17.34375 22.046875 C 17.402344 21.898438 17.457031 21.824219 17.578125 21.71875 Z M 17.578125 21.71875 "/>
<path style=" stroke:none;fill-rule:nonzero;fill:rgb(31.764706%,22.352941%,11.764706%);fill-opacity:1;" d="M 15.058594 21.839844 C 15.078125 21.839844 15.097656 21.839844 15.121094 21.839844 C 15.136719 21.90625 15.15625 21.976562 15.175781 22.046875 C 15.21875 22.246094 15.21875 22.246094 15.300781 22.320312 C 15.519531 22.328125 15.691406 22.328125 15.898438 22.261719 C 15.898438 22.300781 15.898438 22.339844 15.898438 22.378906 C 15.679688 22.527344 15.496094 22.550781 15.238281 22.5 C 15.085938 22.371094 15.085938 22.371094 15 22.199219 C 15.015625 22 15.015625 22 15.058594 21.839844 Z M 15.058594 21.839844 "/>
<path style=" stroke:none;fill-rule:nonzero;fill:rgb(32.156863%,25.098039%,23.921569%);fill-opacity:1;" d="M 18.960938 16.921875 C 19.15625 16.988281 19.320312 17.078125 19.492188 17.191406 C 19.710938 17.332031 19.90625 17.402344 20.160156 17.460938 C 20.140625 17.5 20.121094 17.539062 20.101562 17.578125 C 19.675781 17.480469 19.34375 17.34375 19.019531 17.039062 C 19 17 18.980469 16.960938 18.960938 16.921875 Z M 18.960938 16.921875 "/>
<path style=" stroke:none;fill-rule:nonzero;fill:rgb(26.27451%,18.823529%,17.254902%);fill-opacity:1;" d="M 20.761719 10.558594 C 21.132812 10.539062 21.378906 10.59375 21.71875 10.738281 C 21.699219 10.800781 21.679688 10.859375 21.660156 10.921875 C 21.570312 10.878906 21.570312 10.878906 21.480469 10.835938 C 21.246094 10.734375 21.007812 10.675781 20.761719 10.621094 C 20.761719 10.601562 20.761719 10.582031 20.761719 10.558594 Z M 20.761719 10.558594 "/>
<path style=" stroke:none;fill-rule:nonzero;fill:rgb(24.705882%,16.862745%,15.294118%);fill-opacity:1;" d="M 13.921875 17.398438 C 14.316406 17.441406 14.710938 17.480469 15.121094 17.519531 C 15.121094 17.539062 15.121094 17.558594 15.121094 17.578125 C 14.941406 17.582031 14.765625 17.582031 14.585938 17.582031 C 14.511719 17.585938 14.511719 17.585938 14.433594 17.585938 C 14.386719 17.585938 14.335938 17.585938 14.289062 17.585938 C 14.222656 17.585938 14.222656 17.585938 14.152344 17.585938 C 14.039062 17.578125 14.039062 17.578125 13.921875 17.519531 C 13.921875 17.480469 13.921875 17.441406 13.921875 17.398438 Z M 13.921875 17.398438 "/>
<path style=" stroke:none;fill-rule:nonzero;fill:rgb(30.588235%,21.176471%,11.372549%);fill-opacity:1;" d="M 17.578125 21.421875 C 17.621094 21.421875 17.660156 21.421875 17.699219 21.421875 C 17.738281 21.558594 17.777344 21.695312 17.820312 21.839844 C 17.761719 21.871094 17.761719 21.871094 17.699219 21.898438 C 17.679688 21.859375 17.660156 21.820312 17.640625 21.78125 C 17.582031 21.839844 17.519531 21.898438 17.460938 21.960938 C 17.511719 21.554688 17.511719 21.554688 17.578125 21.421875 Z M 17.578125 21.421875 "/>
<path style=" stroke:none;fill-rule:nonzero;fill:rgb(84.313725%,72.156863%,29.411765%);fill-opacity:1;" d="M 11.160156 21.660156 C 11.277344 21.835938 11.308594 21.9375 11.339844 22.140625 C 11.242188 22.140625 11.140625 22.140625 11.039062 22.140625 C 11.09375 21.796875 11.09375 21.796875 11.160156 21.660156 Z M 11.160156 21.660156 "/>
<path style=" stroke:none;fill-rule:nonzero;fill:rgb(25.882353%,18.039216%,16.862745%);fill-opacity:1;" d="M 16.921875 18.839844 C 16.980469 18.839844 17.039062 18.839844 17.101562 18.839844 C 17.058594 19.019531 17.019531 19.195312 16.980469 19.378906 C 16.921875 19.378906 16.859375 19.378906 16.800781 19.378906 C 16.839844 19.203125 16.878906 19.023438 16.921875 18.839844 Z M 16.921875 18.839844 "/>
<path style=" stroke:none;fill-rule:nonzero;fill:rgb(35.294118%,28.627451%,27.45098%);fill-opacity:1;" d="M 20.820312 18.480469 C 20.9375 18.519531 21.058594 18.558594 21.179688 18.601562 C 21.179688 18.621094 21.179688 18.640625 21.179688 18.660156 C 21.023438 18.699219 20.863281 18.738281 20.699219 18.78125 C 20.679688 18.878906 20.660156 18.976562 20.640625 19.078125 C 20.621094 19.078125 20.601562 19.078125 20.578125 19.078125 C 20.566406 18.914062 20.566406 18.914062 20.578125 18.71875 C 20.699219 18.578125 20.699219 18.578125 20.820312 18.480469 Z M 20.820312 18.480469 "/>
<path style=" stroke:none;fill-rule:nonzero;fill:rgb(35.294118%,28.627451%,27.45098%);fill-opacity:1;" d="M 8.339844 18.480469 C 8.457031 18.519531 8.578125 18.558594 8.699219 18.601562 C 8.699219 18.621094 8.699219 18.640625 8.699219 18.660156 C 8.542969 18.699219 8.382812 18.738281 8.21875 18.78125 C 8.199219 18.878906 8.179688 18.976562 8.160156 19.078125 C 8.140625 19.078125 8.121094 19.078125 8.101562 19.078125 C 8.085938 18.914062 8.085938 18.914062 8.101562 18.71875 C 8.21875 18.578125 8.21875 18.578125 8.339844 18.480469 Z M 8.339844 18.480469 "/>
<path style=" stroke:none;fill-rule:nonzero;fill:rgb(32.156863%,22.745098%,11.764706%);fill-opacity:1;" d="M 19.378906 22.261719 C 19.835938 22.3125 19.835938 22.3125 20.039062 22.378906 C 19.921875 22.5 19.921875 22.5 19.742188 22.515625 C 19.558594 22.5 19.558594 22.5 19.378906 22.378906 C 19.378906 22.339844 19.378906 22.300781 19.378906 22.261719 Z M 19.378906 22.261719 "/>
<path style=" stroke:none;fill-rule:nonzero;fill:rgb(30.980392%,21.568627%,11.372549%);fill-opacity:1;" d="M 10.019531 21.78125 C 10.078125 21.800781 10.140625 21.820312 10.199219 21.839844 C 10.050781 22.046875 10.050781 22.046875 9.898438 22.261719 C 9.839844 22.199219 9.78125 22.140625 9.71875 22.078125 C 9.71875 22.039062 9.71875 22 9.71875 21.960938 C 9.757812 21.953125 9.796875 21.945312 9.835938 21.9375 C 9.898438 21.917969 9.898438 21.917969 9.960938 21.898438 C 9.980469 21.859375 10 21.820312 10.019531 21.78125 Z M 10.019531 21.78125 "/>
<path style=" stroke:none;fill-rule:nonzero;fill:rgb(26.666667%,18.823529%,17.647059%);fill-opacity:1;" d="M 6.601562 18.839844 C 6.660156 18.839844 6.71875 18.839844 6.78125 18.839844 C 6.742188 19.019531 6.699219 19.195312 6.660156 19.378906 C 6.601562 19.359375 6.542969 19.339844 6.480469 19.320312 C 6.519531 19.160156 6.558594 19.003906 6.601562 18.839844 Z M 6.601562 18.839844 "/>
<path style=" stroke:none;fill-rule:nonzero;fill:rgb(31.372549%,21.960784%,11.372549%);fill-opacity:1;" d="M 19.558594 21.421875 C 19.734375 21.410156 19.734375 21.410156 19.921875 21.421875 C 19.960938 21.480469 20 21.539062 20.039062 21.601562 C 19.972656 21.597656 19.910156 21.597656 19.839844 21.597656 C 19.625 21.589844 19.625 21.589844 19.441406 21.660156 C 19.480469 21.582031 19.519531 21.5 19.558594 21.421875 Z M 19.558594 21.421875 "/>
<path style=" stroke:none;fill-rule:nonzero;fill:rgb(25.490196%,18.039216%,16.470588%);fill-opacity:1;" d="M 22.378906 19.800781 C 22.4375 19.980469 22.441406 20.03125 22.378906 20.21875 C 22.300781 20.199219 22.222656 20.179688 22.140625 20.160156 C 22.246094 19.867188 22.246094 19.867188 22.378906 19.800781 Z M 22.378906 19.800781 "/>
<path style=" stroke:none;fill-rule:nonzero;fill:rgb(25.490196%,18.039216%,16.470588%);fill-opacity:1;" d="M 16.679688 19.800781 C 16.734375 19.980469 16.742188 20.03125 16.679688 20.21875 C 16.601562 20.199219 16.523438 20.179688 16.441406 20.160156 C 16.546875 19.867188 16.546875 19.867188 16.679688 19.800781 Z M 16.679688 19.800781 "/>
<path style=" stroke:none;fill-rule:nonzero;fill:rgb(25.490196%,18.039216%,16.470588%);fill-opacity:1;" d="M 6.359375 19.800781 C 6.417969 19.980469 6.421875 20.03125 6.359375 20.21875 C 6.28125 20.199219 6.203125 20.179688 6.121094 20.160156 C 6.226562 19.867188 6.226562 19.867188 6.359375 19.800781 Z M 6.359375 19.800781 "/>
<path style=" stroke:none;fill-rule:nonzero;fill:rgb(32.156863%,22.745098%,11.764706%);fill-opacity:1;" d="M 18.359375 22.261719 C 18.539062 22.28125 18.714844 22.300781 18.898438 22.320312 C 18.898438 22.378906 18.898438 22.4375 18.898438 22.5 C 18.5625 22.515625 18.5625 22.515625 18.359375 22.378906 C 18.359375 22.339844 18.359375 22.300781 18.359375 22.261719 Z M 18.359375 22.261719 "/>
<path style=" stroke:none;fill-rule:nonzero;fill:rgb(21.960784%,14.117647%,12.54902%);fill-opacity:1;" d="M 12.960938 19.800781 C 12.980469 19.859375 13 19.917969 13.019531 19.980469 C 12.921875 20.058594 12.820312 20.136719 12.71875 20.21875 C 12.699219 20.179688 12.679688 20.140625 12.660156 20.101562 C 12.757812 20 12.859375 19.902344 12.960938 19.800781 Z M 12.960938 19.800781 "/>
<path style=" stroke:none;fill-rule:nonzero;fill:rgb(25.098039%,17.254902%,16.078431%);fill-opacity:1;" d="M 22.679688 18.960938 C 22.71875 18.980469 22.757812 19 22.800781 19.019531 C 22.761719 19.140625 22.722656 19.257812 22.679688 19.378906 C 22.621094 19.378906 22.5625 19.378906 22.5 19.378906 C 22.523438 19.203125 22.523438 19.203125 22.558594 19.019531 C 22.597656 19 22.640625 18.980469 22.679688 18.960938 Z M 22.679688 18.960938 "/>
<path style=" stroke:none;fill-rule:nonzero;fill:rgb(25.490196%,18.039216%,16.470588%);fill-opacity:1;" d="M 15.421875 10.558594 C 15.816406 10.550781 15.816406 10.550781 16.019531 10.621094 C 16 10.679688 15.980469 10.738281 15.960938 10.800781 C 15.78125 10.742188 15.605469 10.679688 15.421875 10.621094 C 15.421875 10.601562 15.421875 10.582031 15.421875 10.558594 Z M 15.421875 10.558594 "/>
<path style=" stroke:none;fill-rule:nonzero;fill:rgb(92.54902%,80%,32.156863%);fill-opacity:1;" d="M 17.578125 21.71875 C 17.671875 21.796875 17.671875 21.796875 17.761719 21.898438 C 17.761719 21.960938 17.761719 22.019531 17.761719 22.078125 C 17.679688 22.078125 17.601562 22.078125 17.519531 22.078125 C 17.539062 21.960938 17.558594 21.84375 17.578125 21.71875 Z M 17.578125 21.71875 "/>
<path style=" stroke:none;fill-rule:nonzero;fill:rgb(27.45098%,20%,18.431373%);fill-opacity:1;" d="M 14.398438 13.621094 C 14.222656 13.71875 14.0625 13.777344 13.859375 13.800781 C 13.800781 13.761719 13.742188 13.722656 13.679688 13.679688 C 13.917969 13.601562 14.152344 13.617188 14.398438 13.621094 Z M 14.398438 13.621094 "/>
<path style=" stroke:none;fill-rule:nonzero;fill:rgb(36.470588%,30.196078%,29.019608%);fill-opacity:1;" d="M 18.960938 13.441406 C 19.097656 13.558594 19.238281 13.675781 19.378906 13.800781 C 19.339844 13.839844 19.300781 13.878906 19.261719 13.921875 C 18.960938 13.574219 18.960938 13.574219 18.960938 13.441406 Z M 18.960938 13.441406 "/>
</g>
</svg>
